<svg xmlns="http://www.w3.org/2000/svg" width="367" height="126" viewBox="0 0 367 126" version="1.1">
	<path d="M 206.547 1.057 C 190.662 3.517, 176.608 11.652, 161.085 27.370 L 153.670 34.879 156.585 35.687 C 162.545 37.338, 181.283 36.405, 197.832 33.633 C 206.815 32.128, 216.136 31.033, 218.546 31.199 L 222.927 31.500 218.815 36.768 C 216.553 39.665, 214.973 42.307, 215.305 42.638 C 218.449 45.782, 245.738 47.042, 258.250 44.620 C 261.962 43.901, 265 43.676, 265 44.119 C 265 44.563, 262.394 46.695, 259.210 48.858 C 256.025 51.020, 252.777 53.564, 251.992 54.509 C 248.356 58.891, 261.141 62.359, 281.256 62.448 C 288.680 62.481, 292.861 62.868, 292.602 63.500 C 290.793 67.910, 290.426 67.664, 302.164 69.899 C 319.177 73.139, 336.305 74.354, 346.863 73.070 C 361.050 71.345, 368.177 67.997, 360.803 66.521 C 344.122 63.183, 330.111 55.610, 299.045 33.144 C 282.523 21.197, 272.833 15.537, 259.906 10.286 C 240.105 2.243, 220.634 -1.125, 206.547 1.057 M 167.021 47.125 C 145.324 49.637, 123 62.997, 123 73.470 C 123 82.631, 128.016 82.247, 141.423 72.059 C 153.983 62.514, 155.354 61.773, 166.656 58.429 C 185.166 52.953, 200.875 53.925, 232 62.469 C 249.300 67.219, 267.053 71, 272.051 71 C 274.305 71, 275 70.542, 275 69.056 C 275 67.453, 273.024 66.495, 263.750 63.603 C 216.056 48.733, 190.598 44.396, 167.021 47.125 M 114.020 95.703 C 103.286 101.245, 102.939 120.152, 113.490 124.560 C 120.495 127.487, 127.840 125.152, 131.173 118.938 C 133.664 114.293, 133.645 104.498, 131.137 100.695 C 127.179 94.692, 120.022 92.605, 114.020 95.703 M 174.643 94.997 C 168.418 96.930, 165 102.325, 165 110.216 C 165 120.185, 171.088 126.576, 179.736 125.685 C 188.044 124.829, 192.398 119.436, 192.398 110 C 192.398 98.710, 184.413 91.962, 174.643 94.997 M 201.011 95.702 C 193.522 99.561, 194.718 106.432, 203.721 111.283 C 209.650 114.478, 211.055 117.177, 208.346 120.171 C 206.592 122.109, 203.849 122.292, 198.059 120.857 C 195.190 120.146, 195.747 123.953, 198.677 125.082 C 205.633 127.763, 214 123.572, 214 117.407 C 214 112.262, 213.116 111.087, 206.874 107.936 C 202.113 105.533, 201 104.507, 201 102.521 C 201 99.373, 204.214 97.630, 208.527 98.439 C 210.543 98.817, 212.115 98.623, 212.535 97.944 C 214.529 94.717, 206.103 93.078, 201.011 95.702 M 260.643 94.997 C 254.418 96.930, 251 102.325, 251 110.216 C 251 120.185, 257.088 126.576, 265.736 125.685 C 274.044 124.829, 278.398 119.436, 278.398 110 C 278.398 98.710, 270.413 91.962, 260.643 94.997 M 354.011 95.702 C 346.629 99.506, 347.711 106.410, 356.431 111.143 C 362.147 114.244, 363.516 116.166, 362.013 118.975 C 360.305 122.168, 356.156 122.732, 350.750 120.506 C 349.405 119.953, 349 120.280, 349 121.918 C 349 126.531, 359.998 127.229, 364.598 122.908 C 366.283 121.325, 367 119.562, 367 117 C 367 112.822, 364.878 110.419, 358.250 107.093 C 351.024 103.466, 353.499 96.933, 361.527 98.439 C 363.543 98.817, 365.115 98.623, 365.535 97.944 C 367.529 94.717, 359.103 93.078, 354.011 95.702 M 7.641 96.898 C 2.794 100.094, 1.014 103.801, 1.007 110.715 C 1.001 116.241, 1.343 117.321, 4.091 120.451 C 8.670 125.666, 15.403 126.978, 24.250 124.379 C 25.714 123.949, 26 122.649, 26 116.433 L 26 109 20.427 109 C 15.659 109, 14.901 109.253, 15.185 110.750 C 15.387 111.816, 16.610 112.626, 18.313 112.822 C 20.934 113.123, 21.089 113.404, 20.804 117.322 C 20.514 121.311, 20.342 121.512, 17 121.772 C 12.171 122.148, 7.508 119.070, 6.004 114.512 C 2.743 104.631, 10.785 96.070, 20.666 98.904 C 23.330 99.668, 23.892 99.523, 24.300 97.962 C 25.004 95.268, 24.349 94.999, 17.083 95.007 C 12.321 95.011, 9.709 95.534, 7.641 96.898 M 31 110 C 31 124.333, 31.089 125, 33 125 C 34.779 125, 35 124.333, 35 118.969 C 35 112.110, 36.485 110.640, 40.907 113.121 C 42.761 114.161, 43.898 116.062, 44.895 119.788 C 46.097 124.282, 46.629 125, 48.752 125 C 50.616 125, 51.062 124.604, 50.589 123.371 C 50.245 122.475, 49.472 119.789, 48.871 117.401 C 48.270 115.014, 47.194 112.576, 46.481 111.984 C 45.446 111.126, 45.672 110.419, 47.592 108.499 C 50.792 105.299, 50.773 100.682, 47.545 97.455 C 45.404 95.313, 44.192 95, 38.045 95 L 31 95 31 110 M 55.168 107.584 L 55.500 120.169 58.893 123.198 C 63.486 127.299, 69.979 126.826, 74.218 122.083 C 76.933 119.044, 77 118.679, 77 106.984 C 77 95.667, 76.889 95, 75 95 C 73.123 95, 73 95.667, 73 105.865 C 73 118.265, 71.399 122, 66.082 122 C 60.837 122, 59.549 119.105, 59.146 106.399 C 58.811 95.840, 58.639 95, 56.811 95 C 54.933 95, 54.853 95.611, 55.168 107.584 M 84 110 C 84 124.333, 84.089 125, 86 125 C 87.752 125, 88 124.333, 88 119.614 L 88 114.227 92.519 113.549 C 99.050 112.570, 102.455 109.298, 102.455 104 C 102.455 97.639, 98.933 95, 90.444 95 L 84 95 84 110 M 147 110 L 147 125 155.500 125 C 162.389 125, 164 124.716, 164 123.500 C 164 122.333, 162.667 122, 158 122 L 152 122 152 108.500 L 152 95 149.500 95 L 147 95 147 110 M 228 110 L 228 125 230.500 125 C 232.910 125, 233 124.767, 233 118.500 C 233 112.949, 233.256 112.010, 234.750 112.070 C 238.902 112.237, 240.486 113.766, 242.023 119.094 C 243.240 123.311, 244.069 124.570, 245.792 124.820 C 247.006 124.995, 248 124.857, 248 124.512 C 248 122.087, 245.442 114.181, 244.189 112.733 C 242.802 111.130, 242.861 110.778, 244.830 108.944 C 247.867 106.115, 247.793 100.094, 244.686 97.174 C 242.753 95.358, 241.187 95, 235.186 95 L 228 95 228 110 M 283 109.892 L 283 124.783 285.605 125.437 C 289.691 126.462, 296.929 124.965, 299.792 122.502 C 303.304 119.482, 303.441 113.585, 300.064 110.851 C 297.885 109.086, 297.838 108.837, 299.364 107.151 C 301.716 104.551, 301.439 99.487, 298.811 97.039 C 297.053 95.401, 295.284 95, 289.811 95 L 283 95 283 109.892 M 307 110 L 307 125 315.500 125 C 322.389 125, 324 124.716, 324 123.500 C 324 122.333, 322.667 122, 318 122 L 312 122 312 108.500 L 312 95 309.500 95 L 307 95 307 110 M 328 110 L 328 125 337 125 C 344.333 125, 346 124.722, 346 123.500 C 346 122.321, 344.611 122, 339.500 122 L 333 122 333 116.500 L 333 111 338.500 111 C 342.722 111, 344 110.652, 344 109.500 C 344 108.348, 342.722 108, 338.500 108 L 333 108 333 103.500 L 333 99 339 99 C 344.333 99, 345 98.778, 345 97 C 345 95.157, 344.333 95, 336.500 95 L 328 95 328 110 M 35.750 98.579 C 35.337 98.994, 35 101.568, 35 104.298 L 35 109.263 39.121 108.711 C 41.388 108.407, 43.694 107.706, 44.246 107.154 C 45.523 105.877, 45.551 101.151, 44.289 99.889 C 42.999 98.599, 36.692 97.631, 35.750 98.579 M 88 104 C 88 109.893, 88.049 110, 90.777 110 C 94.883 110, 98 107.411, 98 104 C 98 100.589, 94.883 98, 90.777 98 C 88.049 98, 88 98.107, 88 104 M 114.659 100.054 C 108.927 104.562, 108.927 115.438, 114.659 119.946 C 119.744 123.947, 125.968 121.175, 128.134 113.946 C 130.307 106.694, 125.600 98, 119.500 98 C 118.273 98, 116.095 98.924, 114.659 100.054 M 173.764 99.971 C 168.530 104.088, 168.382 115.332, 173.503 119.750 C 178.172 123.778, 184.154 122.270, 186.585 116.452 C 191.333 105.087, 182.195 93.339, 173.764 99.971 M 233 103.500 C 233 108.847, 233.078 109, 235.777 109 C 239.576 109, 243 106.393, 243 103.500 C 243 100.607, 239.576 98, 235.777 98 C 233.078 98, 233 98.153, 233 103.500 M 259.503 100.250 C 254.246 104.786, 254.333 115.757, 259.659 119.946 C 264.454 123.718, 270.197 122.166, 272.585 116.452 C 277.421 104.876, 267.863 93.038, 259.503 100.250 M 288 102.949 L 288 108.159 291.250 107.464 C 299.007 105.805, 299.294 99.571, 291.669 98.334 L 288 97.738 288 102.949 M 288 116.500 C 288 121.944, 288.030 122, 291 122 C 294.189 122, 298 119.006, 298 116.500 C 298 113.994, 294.189 111, 291 111 C 288.030 111, 288 111.056, 288 116.500" stroke="none" fill="#FFFFFF" fill-rule="evenodd"/>
</svg>